# xmcd
# Track frame offsets:
# 182
# 19062
# 35405
# 52032
# 72880
# 88212
# 108865
# 132205
# 150365
# 168607
#
# Disc length: 2469 seconds
# Revision: 0
# Processed by: cddbd v1.4PL0 Copyright (c) Steve Scherf et al.
# Submitted via: VisiTrax 2.9.5.181 - For more info visit www.synapsa.com
#
DISCID=7d09a30a
DTITLE=Kenny Rogers - Heart To Heart
DYEAR=1999
DGENRE=Country
TTITLE0=Morning Desire
TTITLE1=Two Hearts One Love
TTITLE2=Heart To Heart
TTITLE3=Heart Of The Matter
TTITLE4=Time For Love
TTITLE5=This Love We Share
TTITLE6=I Prefer The Moonlight
TTITLE7=Life Is Good, Love Is Better
TTITLE8=Our Perfect Song
TTITLE9=Eyes That See In The Dark
EXTD=MK3-2852
EXTT0=
EXTT1=
EXTT2=
EXTT3=
EXTT4=
EXTT5=
EXTT6=
EXTT7=
EXTT8=
EXTT9=
PLAYORDER=
